<?xml version="1.0" encoding="utf-8" standalone="no"?>
<!DOCTYPE svg PUBLIC "-//W3C//DTD SVG 1.1//EN"
  "http://www.w3.org/Graphics/SVG/1.1/DTD/svg11.dtd">
<svg xmlns:xlink="http://www.w3.org/1999/xlink" width="615.224375pt" height="505.776406pt" viewBox="0 0 615.224375 505.776406" xmlns="http://www.w3.org/2000/svg" version="1.1">
 <metadata>
  <rdf:RDF xmlns:dc="http://purl.org/dc/elements/1.1/" xmlns:cc="http://creativecommons.org/ns#" xmlns:rdf="http://www.w3.org/1999/02/22-rdf-syntax-ns#">
   <cc:Work>
    <dc:type rdf:resource="http://purl.org/dc/dcmitype/StillImage"/>
    <dc:date>2025-07-22T13:34:34.255521</dc:date>
    <dc:format>image/svg+xml</dc:format>
    <dc:creator>
     <cc:Agent>
      <dc:title>Matplotlib v3.8.0, https://matplotlib.org/</dc:title>
     </cc:Agent>
    </dc:creator>
   </cc:Work>
  </rdf:RDF>
 </metadata>
 <defs>
  <style type="text/css">*{stroke-linejoin: round; stroke-linecap: butt}</style>
 </defs>
 <g id="figure_1">
  <g id="patch_1">
   <path d="M -0 505.776406 
L 615.224375 505.776406 
L 615.224375 0 
L -0 0 
z
" style="fill: #ffffff"/>
  </g>
  <g id="axes_1">
   <g id="patch_2">
    <path d="M 43.074375 467.456719 
L 601.074375 467.456719 
L 601.074375 23.936719 
L 43.074375 23.936719 
z
" style="fill: #ffffff"/>
   </g>
   <g id="matplotlib.axis_1">
    <g id="xtick_1">
     <g id="line2d_1">
      <defs>
       <path id="m1b62430c8a" d="M 0 0 
L 0 3.5 
" style="stroke: #000000; stroke-width: 0.8"/>
      </defs>
      <g>
       <use xlink:href="#m1b62430c8a" x="43.074375" y="467.456719" style="stroke: #000000; stroke-width: 0.8"/>
      </g>
     </g>
     <g id="text_1">
      <!-- 0.0 -->
      <g transform="translate(36.124375 481.614531) scale(0.1 -0.1)">
       <defs>
        <path id="ArialMT-30" d="M 266 2259 
Q 266 3072 433 3567 
Q 600 4063 929 4331 
Q 1259 4600 1759 4600 
Q 2128 4600 2406 4451 
Q 2684 4303 2865 4023 
Q 3047 3744 3150 3342 
Q 3253 2941 3253 2259 
Q 3253 1453 3087 958 
Q 2922 463 2592 192 
Q 2263 -78 1759 -78 
Q 1097 -78 719 397 
Q 266 969 266 2259 
z
M 844 2259 
Q 844 1131 1108 757 
Q 1372 384 1759 384 
Q 2147 384 2411 759 
Q 2675 1134 2675 2259 
Q 2675 3391 2411 3762 
Q 2147 4134 1753 4134 
Q 1366 4134 1134 3806 
Q 844 3388 844 2259 
z
" transform="scale(0.015625)"/>
        <path id="ArialMT-2e" d="M 581 0 
L 581 641 
L 1222 641 
L 1222 0 
L 581 0 
z
" transform="scale(0.015625)"/>
       </defs>
       <use xlink:href="#ArialMT-30"/>
       <use xlink:href="#ArialMT-2e" x="55.615234"/>
       <use xlink:href="#ArialMT-30" x="83.398438"/>
      </g>
     </g>
    </g>
    <g id="xtick_2">
     <g id="line2d_2">
      <g>
       <use xlink:href="#m1b62430c8a" x="154.674375" y="467.456719" style="stroke: #000000; stroke-width: 0.8"/>
      </g>
     </g>
     <g id="text_2">
      <!-- 0.2 -->
      <g transform="translate(147.724375 481.614531) scale(0.1 -0.1)">
       <defs>
        <path id="ArialMT-32" d="M 3222 541 
L 3222 0 
L 194 0 
Q 188 203 259 391 
Q 375 700 629 1000 
Q 884 1300 1366 1694 
Q 2113 2306 2375 2664 
Q 2638 3022 2638 3341 
Q 2638 3675 2398 3904 
Q 2159 4134 1775 4134 
Q 1369 4134 1125 3890 
Q 881 3647 878 3216 
L 300 3275 
Q 359 3922 746 4261 
Q 1134 4600 1788 4600 
Q 2447 4600 2831 4234 
Q 3216 3869 3216 3328 
Q 3216 3053 3103 2787 
Q 2991 2522 2730 2228 
Q 2469 1934 1863 1422 
Q 1356 997 1212 845 
Q 1069 694 975 541 
L 3222 541 
z
" transform="scale(0.015625)"/>
       </defs>
       <use xlink:href="#ArialMT-30"/>
       <use xlink:href="#ArialMT-2e" x="55.615234"/>
       <use xlink:href="#ArialMT-32" x="83.398438"/>
      </g>
     </g>
    </g>
    <g id="xtick_3">
     <g id="line2d_3">
      <g>
       <use xlink:href="#m1b62430c8a" x="266.274375" y="467.456719" style="stroke: #000000; stroke-width: 0.8"/>
      </g>
     </g>
     <g id="text_3">
      <!-- 0.4 -->
      <g transform="translate(259.324375 481.614531) scale(0.1 -0.1)">
       <defs>
        <path id="ArialMT-34" d="M 2069 0 
L 2069 1097 
L 81 1097 
L 81 1613 
L 2172 4581 
L 2631 4581 
L 2631 1613 
L 3250 1613 
L 3250 1097 
L 2631 1097 
L 2631 0 
L 2069 0 
z
M 2069 1613 
L 2069 3678 
L 634 1613 
L 2069 1613 
z
" transform="scale(0.015625)"/>
       </defs>
       <use xlink:href="#ArialMT-30"/>
       <use xlink:href="#ArialMT-2e" x="55.615234"/>
       <use xlink:href="#ArialMT-34" x="83.398438"/>
      </g>
     </g>
    </g>
    <g id="xtick_4">
     <g id="line2d_4">
      <g>
       <use xlink:href="#m1b62430c8a" x="377.874375" y="467.456719" style="stroke: #000000; stroke-width: 0.8"/>
      </g>
     </g>
     <g id="text_4">
      <!-- 0.6 -->
      <g transform="translate(370.924375 481.614531) scale(0.1 -0.1)">
       <defs>
        <path id="ArialMT-36" d="M 3184 3459 
L 2625 3416 
Q 2550 3747 2413 3897 
Q 2184 4138 1850 4138 
Q 1581 4138 1378 3988 
Q 1113 3794 959 3422 
Q 806 3050 800 2363 
Q 1003 2672 1297 2822 
Q 1591 2972 1913 2972 
Q 2475 2972 2870 2558 
Q 3266 2144 3266 1488 
Q 3266 1056 3080 686 
Q 2894 316 2569 119 
Q 2244 -78 1831 -78 
Q 1128 -78 684 439 
Q 241 956 241 2144 
Q 241 3472 731 4075 
Q 1159 4600 1884 4600 
Q 2425 4600 2770 4297 
Q 3116 3994 3184 3459 
z
M 888 1484 
Q 888 1194 1011 928 
Q 1134 663 1356 523 
Q 1578 384 1822 384 
Q 2178 384 2434 671 
Q 2691 959 2691 1453 
Q 2691 1928 2437 2201 
Q 2184 2475 1800 2475 
Q 1419 2475 1153 2201 
Q 888 1928 888 1484 
z
" transform="scale(0.015625)"/>
       </defs>
       <use xlink:href="#ArialMT-30"/>
       <use xlink:href="#ArialMT-2e" x="55.615234"/>
       <use xlink:href="#ArialMT-36" x="83.398438"/>
      </g>
     </g>
    </g>
    <g id="xtick_5">
     <g id="line2d_5">
      <g>
       <use xlink:href="#m1b62430c8a" x="489.474375" y="467.456719" style="stroke: #000000; stroke-width: 0.8"/>
      </g>
     </g>
     <g id="text_5">
      <!-- 0.8 -->
      <g transform="translate(482.524375 481.614531) scale(0.1 -0.1)">
       <defs>
        <path id="ArialMT-38" d="M 1131 2484 
Q 781 2613 612 2850 
Q 444 3088 444 3419 
Q 444 3919 803 4259 
Q 1163 4600 1759 4600 
Q 2359 4600 2725 4251 
Q 3091 3903 3091 3403 
Q 3091 3084 2923 2848 
Q 2756 2613 2416 2484 
Q 2838 2347 3058 2040 
Q 3278 1734 3278 1309 
Q 3278 722 2862 322 
Q 2447 -78 1769 -78 
Q 1091 -78 675 323 
Q 259 725 259 1325 
Q 259 1772 486 2073 
Q 713 2375 1131 2484 
z
M 1019 3438 
Q 1019 3113 1228 2906 
Q 1438 2700 1772 2700 
Q 2097 2700 2305 2904 
Q 2513 3109 2513 3406 
Q 2513 3716 2298 3927 
Q 2084 4138 1766 4138 
Q 1444 4138 1231 3931 
Q 1019 3725 1019 3438 
z
M 838 1322 
Q 838 1081 952 856 
Q 1066 631 1291 507 
Q 1516 384 1775 384 
Q 2178 384 2440 643 
Q 2703 903 2703 1303 
Q 2703 1709 2433 1975 
Q 2163 2241 1756 2241 
Q 1359 2241 1098 1978 
Q 838 1716 838 1322 
z
" transform="scale(0.015625)"/>
       </defs>
       <use xlink:href="#ArialMT-30"/>
       <use xlink:href="#ArialMT-2e" x="55.615234"/>
       <use xlink:href="#ArialMT-38" x="83.398438"/>
      </g>
     </g>
    </g>
    <g id="xtick_6">
     <g id="line2d_6">
      <g>
       <use xlink:href="#m1b62430c8a" x="601.074375" y="467.456719" style="stroke: #000000; stroke-width: 0.8"/>
      </g>
     </g>
     <g id="text_6">
      <!-- 1.0 -->
      <g transform="translate(594.124375 481.614531) scale(0.1 -0.1)">
       <defs>
        <path id="ArialMT-31" d="M 2384 0 
L 1822 0 
L 1822 3584 
Q 1619 3391 1289 3197 
Q 959 3003 697 2906 
L 697 3450 
Q 1169 3672 1522 3987 
Q 1875 4303 2022 4600 
L 2384 4600 
L 2384 0 
z
" transform="scale(0.015625)"/>
       </defs>
       <use xlink:href="#ArialMT-31"/>
       <use xlink:href="#ArialMT-2e" x="55.615234"/>
       <use xlink:href="#ArialMT-30" x="83.398438"/>
      </g>
     </g>
    </g>
    <g id="text_7">
     <!-- False Positive Rate -->
     <g transform="translate(270.388125 496.191406) scale(0.12 -0.12)">
      <defs>
       <path id="ArialMT-46" d="M 525 0 
L 525 4581 
L 3616 4581 
L 3616 4041 
L 1131 4041 
L 1131 2622 
L 3281 2622 
L 3281 2081 
L 1131 2081 
L 1131 0 
L 525 0 
z
" transform="scale(0.015625)"/>
       <path id="ArialMT-61" d="M 2588 409 
Q 2275 144 1986 34 
Q 1697 -75 1366 -75 
Q 819 -75 525 192 
Q 231 459 231 875 
Q 231 1119 342 1320 
Q 453 1522 633 1644 
Q 813 1766 1038 1828 
Q 1203 1872 1538 1913 
Q 2219 1994 2541 2106 
Q 2544 2222 2544 2253 
Q 2544 2597 2384 2738 
Q 2169 2928 1744 2928 
Q 1347 2928 1158 2789 
Q 969 2650 878 2297 
L 328 2372 
Q 403 2725 575 2942 
Q 747 3159 1072 3276 
Q 1397 3394 1825 3394 
Q 2250 3394 2515 3294 
Q 2781 3194 2906 3042 
Q 3031 2891 3081 2659 
Q 3109 2516 3109 2141 
L 3109 1391 
Q 3109 606 3145 398 
Q 3181 191 3288 0 
L 2700 0 
Q 2613 175 2588 409 
z
M 2541 1666 
Q 2234 1541 1622 1453 
Q 1275 1403 1131 1340 
Q 988 1278 909 1158 
Q 831 1038 831 891 
Q 831 666 1001 516 
Q 1172 366 1500 366 
Q 1825 366 2078 508 
Q 2331 650 2450 897 
Q 2541 1088 2541 1459 
L 2541 1666 
z
" transform="scale(0.015625)"/>
       <path id="ArialMT-6c" d="M 409 0 
L 409 4581 
L 972 4581 
L 972 0 
L 409 0 
z
" transform="scale(0.015625)"/>
       <path id="ArialMT-73" d="M 197 991 
L 753 1078 
Q 800 744 1014 566 
Q 1228 388 1613 388 
Q 2000 388 2187 545 
Q 2375 703 2375 916 
Q 2375 1106 2209 1216 
Q 2094 1291 1634 1406 
Q 1016 1563 777 1677 
Q 538 1791 414 1992 
Q 291 2194 291 2438 
Q 291 2659 392 2848 
Q 494 3038 669 3163 
Q 800 3259 1026 3326 
Q 1253 3394 1513 3394 
Q 1903 3394 2198 3281 
Q 2494 3169 2634 2976 
Q 2775 2784 2828 2463 
L 2278 2388 
Q 2241 2644 2061 2787 
Q 1881 2931 1553 2931 
Q 1166 2931 1000 2803 
Q 834 2675 834 2503 
Q 834 2394 903 2306 
Q 972 2216 1119 2156 
Q 1203 2125 1616 2013 
Q 2213 1853 2448 1751 
Q 2684 1650 2818 1456 
Q 2953 1263 2953 975 
Q 2953 694 2789 445 
Q 2625 197 2315 61 
Q 2006 -75 1616 -75 
Q 969 -75 630 194 
Q 291 463 197 991 
z
" transform="scale(0.015625)"/>
       <path id="ArialMT-65" d="M 2694 1069 
L 3275 997 
Q 3138 488 2766 206 
Q 2394 -75 1816 -75 
Q 1088 -75 661 373 
Q 234 822 234 1631 
Q 234 2469 665 2931 
Q 1097 3394 1784 3394 
Q 2450 3394 2872 2941 
Q 3294 2488 3294 1666 
Q 3294 1616 3291 1516 
L 816 1516 
Q 847 969 1125 678 
Q 1403 388 1819 388 
Q 2128 388 2347 550 
Q 2566 713 2694 1069 
z
M 847 1978 
L 2700 1978 
Q 2663 2397 2488 2606 
Q 2219 2931 1791 2931 
Q 1403 2931 1139 2672 
Q 875 2413 847 1978 
z
" transform="scale(0.015625)"/>
       <path id="ArialMT-20" transform="scale(0.015625)"/>
       <path id="ArialMT-50" d="M 494 0 
L 494 4581 
L 2222 4581 
Q 2678 4581 2919 4538 
Q 3256 4481 3484 4323 
Q 3713 4166 3852 3881 
Q 3991 3597 3991 3256 
Q 3991 2672 3619 2267 
Q 3247 1863 2275 1863 
L 1100 1863 
L 1100 0 
L 494 0 
z
M 1100 2403 
L 2284 2403 
Q 2872 2403 3119 2622 
Q 3366 2841 3366 3238 
Q 3366 3525 3220 3729 
Q 3075 3934 2838 4000 
Q 2684 4041 2272 4041 
L 1100 4041 
L 1100 2403 
z
" transform="scale(0.015625)"/>
       <path id="ArialMT-6f" d="M 213 1659 
Q 213 2581 725 3025 
Q 1153 3394 1769 3394 
Q 2453 3394 2887 2945 
Q 3322 2497 3322 1706 
Q 3322 1066 3130 698 
Q 2938 331 2570 128 
Q 2203 -75 1769 -75 
Q 1072 -75 642 372 
Q 213 819 213 1659 
z
M 791 1659 
Q 791 1022 1069 705 
Q 1347 388 1769 388 
Q 2188 388 2466 706 
Q 2744 1025 2744 1678 
Q 2744 2294 2464 2611 
Q 2184 2928 1769 2928 
Q 1347 2928 1069 2612 
Q 791 2297 791 1659 
z
" transform="scale(0.015625)"/>
       <path id="ArialMT-69" d="M 425 3934 
L 425 4581 
L 988 4581 
L 988 3934 
L 425 3934 
z
M 425 0 
L 425 3319 
L 988 3319 
L 988 0 
L 425 0 
z
" transform="scale(0.015625)"/>
       <path id="ArialMT-74" d="M 1650 503 
L 1731 6 
Q 1494 -44 1306 -44 
Q 1000 -44 831 53 
Q 663 150 594 308 
Q 525 466 525 972 
L 525 2881 
L 113 2881 
L 113 3319 
L 525 3319 
L 525 4141 
L 1084 4478 
L 1084 3319 
L 1650 3319 
L 1650 2881 
L 1084 2881 
L 1084 941 
Q 1084 700 1114 631 
Q 1144 563 1211 522 
Q 1278 481 1403 481 
Q 1497 481 1650 503 
z
" transform="scale(0.015625)"/>
       <path id="ArialMT-76" d="M 1344 0 
L 81 3319 
L 675 3319 
L 1388 1331 
Q 1503 1009 1600 663 
Q 1675 925 1809 1294 
L 2547 3319 
L 3125 3319 
L 1869 0 
L 1344 0 
z
" transform="scale(0.015625)"/>
       <path id="ArialMT-52" d="M 503 0 
L 503 4581 
L 2534 4581 
Q 3147 4581 3465 4457 
Q 3784 4334 3975 4021 
Q 4166 3709 4166 3331 
Q 4166 2844 3850 2509 
Q 3534 2175 2875 2084 
Q 3116 1969 3241 1856 
Q 3506 1613 3744 1247 
L 4541 0 
L 3778 0 
L 3172 953 
Q 2906 1366 2734 1584 
Q 2563 1803 2427 1890 
Q 2291 1978 2150 2013 
Q 2047 2034 1813 2034 
L 1109 2034 
L 1109 0 
L 503 0 
z
M 1109 2559 
L 2413 2559 
Q 2828 2559 3062 2645 
Q 3297 2731 3419 2920 
Q 3541 3109 3541 3331 
Q 3541 3656 3305 3865 
Q 3069 4075 2559 4075 
L 1109 4075 
L 1109 2559 
z
" transform="scale(0.015625)"/>
      </defs>
      <use xlink:href="#ArialMT-46"/>
      <use xlink:href="#ArialMT-61" x="61.083984"/>
      <use xlink:href="#ArialMT-6c" x="116.699219"/>
      <use xlink:href="#ArialMT-73" x="138.916016"/>
      <use xlink:href="#ArialMT-65" x="188.916016"/>
      <use xlink:href="#ArialMT-20" x="244.53125"/>
      <use xlink:href="#ArialMT-50" x="272.314453"/>
      <use xlink:href="#ArialMT-6f" x="339.013672"/>
      <use xlink:href="#ArialMT-73" x="394.628906"/>
      <use xlink:href="#ArialMT-69" x="444.628906"/>
      <use xlink:href="#ArialMT-74" x="466.845703"/>
      <use xlink:href="#ArialMT-69" x="494.628906"/>
      <use xlink:href="#ArialMT-76" x="516.845703"/>
      <use xlink:href="#ArialMT-65" x="566.845703"/>
      <use xlink:href="#ArialMT-20" x="622.460938"/>
      <use xlink:href="#ArialMT-52" x="650.244141"/>
      <use xlink:href="#ArialMT-61" x="722.460938"/>
      <use xlink:href="#ArialMT-74" x="778.076172"/>
      <use xlink:href="#ArialMT-65" x="805.859375"/>
     </g>
    </g>
   </g>
   <g id="matplotlib.axis_2">
    <g id="ytick_1">
     <g id="line2d_7">
      <defs>
       <path id="m859502c8c8" d="M 0 0 
L -3.5 0 
" style="stroke: #000000; stroke-width: 0.8"/>
      </defs>
      <g>
       <use xlink:href="#m859502c8c8" x="43.074375" y="467.456719" style="stroke: #000000; stroke-width: 0.8"/>
      </g>
     </g>
     <g id="text_8">
      <!-- 0.0 -->
      <g transform="translate(22.174375 471.035625) scale(0.1 -0.1)">
       <use xlink:href="#ArialMT-30"/>
       <use xlink:href="#ArialMT-2e" x="55.615234"/>
       <use xlink:href="#ArialMT-30" x="83.398438"/>
      </g>
     </g>
    </g>
    <g id="ytick_2">
     <g id="line2d_8">
      <g>
       <use xlink:href="#m859502c8c8" x="43.074375" y="379.630976" style="stroke: #000000; stroke-width: 0.8"/>
      </g>
     </g>
     <g id="text_9">
      <!-- 0.2 -->
      <g transform="translate(22.174375 383.209882) scale(0.1 -0.1)">
       <use xlink:href="#ArialMT-30"/>
       <use xlink:href="#ArialMT-2e" x="55.615234"/>
       <use xlink:href="#ArialMT-32" x="83.398438"/>
      </g>
     </g>
    </g>
    <g id="ytick_3">
     <g id="line2d_9">
      <g>
       <use xlink:href="#m859502c8c8" x="43.074375" y="291.805234" style="stroke: #000000; stroke-width: 0.8"/>
      </g>
     </g>
     <g id="text_10">
      <!-- 0.4 -->
      <g transform="translate(22.174375 295.38414) scale(0.1 -0.1)">
       <use xlink:href="#ArialMT-30"/>
       <use xlink:href="#ArialMT-2e" x="55.615234"/>
       <use xlink:href="#ArialMT-34" x="83.398438"/>
      </g>
     </g>
    </g>
    <g id="ytick_4">
     <g id="line2d_10">
      <g>
       <use xlink:href="#m859502c8c8" x="43.074375" y="203.979491" style="stroke: #000000; stroke-width: 0.8"/>
      </g>
     </g>
     <g id="text_11">
      <!-- 0.6 -->
      <g transform="translate(22.174375 207.558397) scale(0.1 -0.1)">
       <use xlink:href="#ArialMT-30"/>
       <use xlink:href="#ArialMT-2e" x="55.615234"/>
       <use xlink:href="#ArialMT-36" x="83.398438"/>
      </g>
     </g>
    </g>
    <g id="ytick_5">
     <g id="line2d_11">
      <g>
       <use xlink:href="#m859502c8c8" x="43.074375" y="116.153748" style="stroke: #000000; stroke-width: 0.8"/>
      </g>
     </g>
     <g id="text_12">
      <!-- 0.8 -->
      <g transform="translate(22.174375 119.732655) scale(0.1 -0.1)">
       <use xlink:href="#ArialMT-30"/>
       <use xlink:href="#ArialMT-2e" x="55.615234"/>
       <use xlink:href="#ArialMT-38" x="83.398438"/>
      </g>
     </g>
    </g>
    <g id="ytick_6">
     <g id="line2d_12">
      <g>
       <use xlink:href="#m859502c8c8" x="43.074375" y="28.328006" style="stroke: #000000; stroke-width: 0.8"/>
      </g>
     </g>
     <g id="text_13">
      <!-- 1.0 -->
      <g transform="translate(22.174375 31.906912) scale(0.1 -0.1)">
       <use xlink:href="#ArialMT-31"/>
       <use xlink:href="#ArialMT-2e" x="55.615234"/>
       <use xlink:href="#ArialMT-30" x="83.398438"/>
      </g>
     </g>
    </g>
    <g id="text_14">
     <!-- True Positive Rate -->
     <g transform="translate(15.789375 294.822656) rotate(-90) scale(0.12 -0.12)">
      <defs>
       <path id="ArialMT-54" d="M 1659 0 
L 1659 4041 
L 150 4041 
L 150 4581 
L 3781 4581 
L 3781 4041 
L 2266 4041 
L 2266 0 
L 1659 0 
z
" transform="scale(0.015625)"/>
       <path id="ArialMT-72" d="M 416 0 
L 416 3319 
L 922 3319 
L 922 2816 
Q 1116 3169 1280 3281 
Q 1444 3394 1641 3394 
Q 1925 3394 2219 3213 
L 2025 2691 
Q 1819 2813 1613 2813 
Q 1428 2813 1281 2702 
Q 1134 2591 1072 2394 
Q 978 2094 978 1738 
L 978 0 
L 416 0 
z
" transform="scale(0.015625)"/>
       <path id="ArialMT-75" d="M 2597 0 
L 2597 488 
Q 2209 -75 1544 -75 
Q 1250 -75 995 37 
Q 741 150 617 320 
Q 494 491 444 738 
Q 409 903 409 1263 
L 409 3319 
L 972 3319 
L 972 1478 
Q 972 1038 1006 884 
Q 1059 663 1231 536 
Q 1403 409 1656 409 
Q 1909 409 2131 539 
Q 2353 669 2445 892 
Q 2538 1116 2538 1541 
L 2538 3319 
L 3100 3319 
L 3100 0 
L 2597 0 
z
" transform="scale(0.015625)"/>
      </defs>
      <use xlink:href="#ArialMT-54"/>
      <use xlink:href="#ArialMT-72" x="57.333984"/>
      <use xlink:href="#ArialMT-75" x="90.634766"/>
      <use xlink:href="#ArialMT-65" x="146.25"/>
      <use xlink:href="#ArialMT-20" x="201.865234"/>
      <use xlink:href="#ArialMT-50" x="229.648438"/>
      <use xlink:href="#ArialMT-6f" x="296.347656"/>
      <use xlink:href="#ArialMT-73" x="351.962891"/>
      <use xlink:href="#ArialMT-69" x="401.962891"/>
      <use xlink:href="#ArialMT-74" x="424.179688"/>
      <use xlink:href="#ArialMT-69" x="451.962891"/>
      <use xlink:href="#ArialMT-76" x="474.179688"/>
      <use xlink:href="#ArialMT-65" x="524.179688"/>
      <use xlink:href="#ArialMT-20" x="579.794922"/>
      <use xlink:href="#ArialMT-52" x="607.578125"/>
      <use xlink:href="#ArialMT-61" x="679.794922"/>
      <use xlink:href="#ArialMT-74" x="735.410156"/>
      <use xlink:href="#ArialMT-65" x="763.193359"/>
     </g>
    </g>
   </g>
   <g id="line2d_13">
    <path d="M 43.074375 467.456719 
L 43.074375 462.166011 
L 43.074375 441.003182 
L 47.648145 441.003182 
L 47.648145 435.712474 
L 52.221916 435.712474 
L 52.221916 419.840352 
L 56.795686 419.840352 
L 56.795686 382.805401 
L 65.943227 382.805401 
L 65.943227 345.770449 
L 70.516998 345.770449 
L 70.516998 335.189034 
L 75.090768 335.189034 
L 75.090768 319.316912 
L 79.664539 319.316912 
L 79.664539 314.026205 
L 84.238309 314.026205 
L 84.238309 303.44479 
L 93.38585 303.44479 
L 93.38585 282.28196 
L 97.959621 282.28196 
L 97.959621 276.991253 
L 102.533391 276.991253 
L 102.533391 261.119131 
L 107.107162 261.119131 
L 107.107162 255.828423 
L 129.976014 255.828423 
L 129.976014 229.374886 
L 134.549785 229.374886 
L 134.549785 224.084179 
L 152.844867 224.084179 
L 152.844867 218.793472 
L 166.566178 218.793472 
L 166.566178 208.212057 
L 171.139949 208.212057 
L 171.139949 202.92135 
L 189.435031 202.92135 
L 189.435031 197.630642 
L 194.008801 197.630642 
L 194.008801 187.049227 
L 207.730113 187.049227 
L 207.730113 181.75852 
L 212.303883 181.75852 
L 212.303883 176.467813 
L 262.615359 176.467813 
L 262.615359 171.177105 
L 280.910441 171.177105 
L 280.910441 155.304983 
L 299.205523 155.304983 
L 299.205523 150.014276 
L 312.926834 150.014276 
L 312.926834 134.142154 
L 322.074375 134.142154 
L 322.074375 128.851446 
L 331.221916 128.851446 
L 331.221916 123.560739 
L 335.795686 123.560739 
L 335.795686 107.688617 
L 358.664539 107.688617 
L 358.664539 97.107202 
L 372.38585 97.107202 
L 372.38585 86.525787 
L 408.976014 86.525787 
L 408.976014 75.944372 
L 418.123555 75.944372 
L 418.123555 65.362958 
L 427.271096 65.362958 
L 427.271096 54.781543 
L 436.418637 54.781543 
L 436.418637 49.490835 
L 454.713719 49.490835 
L 454.713719 38.909421 
L 459.28749 38.909421 
L 459.28749 33.618713 
L 482.156342 33.618713 
L 482.156342 28.328006 
L 601.074375 28.328006 
" clip-path="url(#pfe395bc43b)" style="fill: none; stroke: #ff0000; stroke-width: 2; stroke-linecap: square"/>
   </g>
   <g id="line2d_14">
    <path d="M 43.074375 467.456719 
L 43.074375 462.166011 
L 43.074375 456.875304 
L 47.648145 456.875304 
L 47.648145 451.584597 
L 52.221916 451.584597 
L 52.221916 446.293889 
L 52.221916 435.712474 
L 56.795686 430.421767 
L 65.943227 430.421767 
L 65.943227 425.13106 
L 79.664539 425.13106 
L 79.664539 403.96823 
L 88.81208 403.96823 
L 88.81208 366.933278 
L 93.38585 366.933278 
L 93.38585 361.642571 
L 97.959621 356.351864 
L 97.959621 351.061156 
L 102.533391 351.061156 
L 102.533391 340.479742 
L 107.107162 340.479742 
L 107.107162 298.154082 
L 125.402244 298.154082 
L 125.402244 287.572668 
L 129.976014 287.572668 
L 129.976014 282.28196 
L 134.549785 282.28196 
L 134.549785 276.991253 
L 143.697326 276.991253 
L 143.697326 271.700546 
L 157.418637 271.700546 
L 157.418637 266.409838 
L 166.566178 266.409838 
L 171.139949 261.119131 
L 171.139949 250.537716 
L 180.28749 250.537716 
L 180.28749 229.374886 
L 194.008801 229.374886 
L 194.008801 218.793472 
L 207.730113 218.793472 
L 207.730113 213.502764 
L 212.303883 208.212057 
L 212.303883 202.92135 
L 239.746506 202.92135 
L 239.746506 197.630642 
L 253.467818 197.630642 
L 253.467818 192.339935 
L 271.7629 192.339935 
L 271.7629 187.049227 
L 280.910441 187.049227 
L 280.910441 181.75852 
L 285.484211 181.75852 
L 285.484211 176.467813 
L 294.631752 176.467813 
L 294.631752 171.177105 
L 312.926834 171.177105 
L 322.074375 171.177105 
L 331.221916 171.177105 
L 331.221916 165.886398 
L 386.107162 165.886398 
L 395.254703 165.886398 
L 404.402244 165.886398 
L 404.402244 160.59569 
L 408.976014 160.59569 
L 408.976014 150.014276 
L 418.123555 150.014276 
L 418.123555 139.432861 
L 422.697326 134.142154 
L 427.271096 134.142154 
L 431.844867 128.851446 
L 440.992408 128.851446 
L 440.992408 112.979324 
L 482.156342 112.979324 
L 482.156342 107.688617 
L 486.730113 107.688617 
L 486.730113 75.944372 
L 491.303883 75.944372 
L 500.451424 75.944372 
L 500.451424 65.362958 
L 500.451424 60.07225 
L 505.025195 60.07225 
L 505.025195 44.200128 
L 509.598965 44.200128 
L 509.598965 38.909421 
L 514.172736 38.909421 
L 514.172736 33.618713 
L 518.746506 33.618713 
L 518.746506 28.328006 
L 541.615359 28.328006 
L 550.7629 28.328006 
L 555.33667 28.328006 
L 564.484211 28.328006 
L 601.074375 28.328006 
" clip-path="url(#pfe395bc43b)" style="fill: none; stroke: #ff7f0e; stroke-opacity: 0.33; stroke-linecap: square"/>
   </g>
   <g id="line2d_15">
    <path d="M 43.074375 467.456719 
L 43.074375 462.166011 
L 43.074375 456.875304 
L 52.221916 456.875304 
L 52.221916 435.712474 
L 56.795686 435.712474 
L 56.795686 388.096108 
L 61.369457 388.096108 
L 61.369457 361.642571 
L 65.943227 361.642571 
L 65.943227 356.351864 
L 75.090768 356.351864 
L 75.090768 351.061156 
L 84.238309 351.061156 
L 84.238309 335.189034 
L 93.38585 335.189034 
L 93.38585 329.898327 
L 97.959621 329.898327 
L 97.959621 324.607619 
L 102.533391 324.607619 
L 102.533391 303.44479 
L 120.828473 303.44479 
L 120.828473 287.572668 
L 125.402244 287.572668 
L 125.402244 271.700546 
L 129.976014 271.700546 
L 129.976014 266.409838 
L 139.123555 266.409838 
L 139.123555 261.119131 
L 152.844867 261.119131 
L 152.844867 255.828423 
L 157.418637 255.828423 
L 157.418637 250.537716 
L 161.992408 250.537716 
L 161.992408 234.665594 
L 184.86126 234.665594 
L 184.86126 229.374886 
L 194.008801 229.374886 
L 194.008801 218.793472 
L 203.156342 218.793472 
L 203.156342 197.630642 
L 221.451424 197.630642 
L 221.451424 192.339935 
L 226.025195 192.339935 
L 226.025195 171.177105 
L 235.172736 171.177105 
L 235.172736 160.59569 
L 244.320277 160.59569 
L 244.320277 155.304983 
L 258.041588 155.304983 
L 258.041588 134.142154 
L 303.779293 134.142154 
L 303.779293 128.851446 
L 308.353064 128.851446 
L 308.353064 123.560739 
L 317.500605 123.560739 
L 317.500605 112.979324 
L 340.369457 112.979324 
L 340.369457 97.107202 
L 386.107162 97.107202 
L 386.107162 91.816494 
L 413.549785 91.816494 
L 413.549785 75.944372 
L 431.844867 75.944372 
L 431.844867 60.07225 
L 459.28749 60.07225 
L 459.28749 54.781543 
L 495.877654 54.781543 
L 495.877654 49.490835 
L 541.615359 49.490835 
L 541.615359 44.200128 
L 550.7629 44.200128 
L 550.7629 38.909421 
L 564.484211 38.909421 
L 564.484211 33.618713 
L 591.926834 33.618713 
L 591.926834 28.328006 
L 601.074375 28.328006 
" clip-path="url(#pfe395bc43b)" style="fill: none; stroke: #2ca02c; stroke-opacity: 0.33; stroke-linecap: square"/>
   </g>
   <g id="line2d_16">
    <path d="M 43.074375 467.456719 
L 43.074375 462.166011 
L 47.648145 462.166011 
L 47.648145 451.584597 
L 52.221916 451.584597 
L 52.221916 430.421767 
L 56.795686 430.421767 
L 56.795686 425.13106 
L 61.369457 425.13106 
L 61.369457 382.805401 
L 65.943227 382.805401 
L 65.943227 361.642571 
L 70.516998 361.642571 
L 70.516998 340.479742 
L 75.090768 340.479742 
L 75.090768 335.189034 
L 88.81208 335.189034 
L 88.81208 329.898327 
L 93.38585 329.898327 
L 93.38585 319.316912 
L 97.959621 319.316912 
L 97.959621 314.026205 
L 107.107162 314.026205 
L 107.107162 308.735497 
L 120.828473 308.735497 
L 120.828473 303.44479 
L 125.402244 303.44479 
L 125.402244 255.828423 
L 175.713719 255.828423 
L 175.713719 250.537716 
L 184.86126 250.537716 
L 184.86126 245.247009 
L 189.435031 245.247009 
L 189.435031 234.665594 
L 194.008801 234.665594 
L 194.008801 229.374886 
L 207.730113 229.374886 
L 207.730113 224.084179 
L 212.303883 224.084179 
L 212.303883 218.793472 
L 230.598965 218.793472 
L 230.598965 213.502764 
L 235.172736 213.502764 
L 235.172736 208.212057 
L 239.746506 208.212057 
L 239.746506 197.630642 
L 244.320277 197.630642 
L 244.320277 192.339935 
L 271.7629 192.339935 
L 271.7629 187.049227 
L 290.057982 187.049227 
L 290.057982 176.467813 
L 344.943227 176.467813 
L 344.943227 165.886398 
L 354.090768 165.886398 
L 354.090768 160.59569 
L 363.238309 160.59569 
L 363.238309 155.304983 
L 395.254703 155.304983 
L 395.254703 150.014276 
L 404.402244 150.014276 
L 404.402244 144.723568 
L 427.271096 144.723568 
L 427.271096 139.432861 
L 436.418637 139.432861 
L 436.418637 134.142154 
L 440.992408 134.142154 
L 440.992408 123.560739 
L 450.139949 123.560739 
L 450.139949 102.397909 
L 463.86126 102.397909 
L 463.86126 97.107202 
L 468.435031 97.107202 
L 468.435031 86.525787 
L 477.582572 86.525787 
L 477.582572 81.23508 
L 486.730113 81.23508 
L 486.730113 75.944372 
L 500.451424 75.944372 
L 500.451424 60.07225 
L 505.025195 60.07225 
L 505.025195 49.490835 
L 509.598965 49.490835 
L 509.598965 38.909421 
L 514.172736 38.909421 
L 514.172736 33.618713 
L 518.746506 33.618713 
L 518.746506 28.328006 
L 601.074375 28.328006 
" clip-path="url(#pfe395bc43b)" style="fill: none; stroke: #4b0082; stroke-opacity: 0.33; stroke-linecap: square"/>
   </g>
   <g id="line2d_17">
    <path d="M 43.074375 467.456719 
L 43.074375 462.166011 
L 43.074375 456.875304 
L 47.648145 456.875304 
L 47.648145 435.712474 
L 52.221916 435.712474 
L 52.221916 419.840352 
L 61.369457 419.840352 
L 61.369457 414.549645 
L 65.943227 414.549645 
L 65.943227 393.386815 
L 70.516998 393.386815 
L 70.516998 388.096108 
L 75.090768 388.096108 
L 75.090768 345.770449 
L 79.664539 345.770449 
L 79.664539 340.479742 
L 88.81208 340.479742 
L 88.81208 319.316912 
L 102.533391 319.316912 
L 102.533391 314.026205 
L 107.107162 314.026205 
L 107.107162 287.572668 
L 125.402244 287.572668 
L 125.402244 271.700546 
L 134.549785 271.700546 
L 134.549785 266.409838 
L 148.271096 266.409838 
L 148.271096 250.537716 
L 157.418637 250.537716 
L 157.418637 229.374886 
L 161.992408 229.374886 
L 161.992408 218.793472 
L 166.566178 218.793472 
L 166.566178 202.92135 
L 203.156342 202.92135 
L 203.156342 187.049227 
L 226.025195 187.049227 
L 226.025195 181.75852 
L 253.467818 181.75852 
L 253.467818 176.467813 
L 258.041588 176.467813 
L 258.041588 160.59569 
L 267.189129 160.59569 
L 267.189129 155.304983 
L 280.910441 155.304983 
L 280.910441 150.014276 
L 303.779293 150.014276 
L 303.779293 144.723568 
L 367.81208 144.723568 
L 367.81208 139.432861 
L 395.254703 139.432861 
L 395.254703 128.851446 
L 399.828473 128.851446 
L 399.828473 123.560739 
L 404.402244 123.560739 
L 404.402244 118.270031 
L 422.697326 118.270031 
L 422.697326 107.688617 
L 436.418637 107.688617 
L 436.418637 97.107202 
L 440.992408 97.107202 
L 440.992408 91.816494 
L 450.139949 91.816494 
L 450.139949 86.525787 
L 477.582572 86.525787 
L 477.582572 54.781543 
L 482.156342 54.781543 
L 482.156342 38.909421 
L 500.451424 38.909421 
L 500.451424 33.618713 
L 514.172736 33.618713 
L 514.172736 28.328006 
L 601.074375 28.328006 
" clip-path="url(#pfe395bc43b)" style="fill: none; stroke: #9467bd; stroke-opacity: 0.33; stroke-linecap: square"/>
   </g>
   <g id="line2d_18">
    <path d="M 43.074375 467.456719 
L 43.074375 462.166011 
L 52.221916 462.166011 
L 52.221916 456.875304 
L 56.795686 456.875304 
L 56.795686 446.293889 
L 61.369457 446.293889 
L 61.369457 414.549645 
L 75.090768 414.549645 
L 75.090768 377.514693 
L 79.664539 377.514693 
L 79.664539 372.223986 
L 93.38585 372.223986 
L 93.38585 366.933278 
L 102.533391 366.933278 
L 102.533391 361.642571 
L 107.107162 361.642571 
L 107.107162 356.351864 
L 111.680932 356.351864 
L 111.680932 314.026205 
L 116.254703 314.026205 
L 116.254703 303.44479 
L 120.828473 303.44479 
L 120.828473 292.863375 
L 125.402244 292.863375 
L 125.402244 282.28196 
L 139.123555 282.28196 
L 139.123555 276.991253 
L 152.844867 276.991253 
L 152.844867 271.700546 
L 171.139949 271.700546 
L 171.139949 261.119131 
L 180.28749 261.119131 
L 180.28749 255.828423 
L 194.008801 255.828423 
L 194.008801 245.247009 
L 198.582572 245.247009 
L 198.582572 224.084179 
L 207.730113 224.084179 
L 207.730113 218.793472 
L 221.451424 218.793472 
L 221.451424 208.212057 
L 235.172736 208.212057 
L 235.172736 192.339935 
L 248.894047 192.339935 
L 248.894047 187.049227 
L 253.467818 187.049227 
L 253.467818 176.467813 
L 258.041588 176.467813 
L 258.041588 171.177105 
L 294.631752 171.177105 
L 294.631752 165.886398 
L 303.779293 165.886398 
L 303.779293 160.59569 
L 312.926834 160.59569 
L 312.926834 155.304983 
L 349.516998 155.304983 
L 349.516998 150.014276 
L 386.107162 150.014276 
L 386.107162 144.723568 
L 399.828473 144.723568 
L 399.828473 139.432861 
L 413.549785 139.432861 
L 413.549785 134.142154 
L 436.418637 134.142154 
L 436.418637 123.560739 
L 450.139949 123.560739 
L 450.139949 118.270031 
L 468.435031 118.270031 
L 468.435031 107.688617 
L 482.156342 107.688617 
L 482.156342 81.23508 
L 491.303883 81.23508 
L 491.303883 65.362958 
L 495.877654 65.362958 
L 495.877654 49.490835 
L 505.025195 49.490835 
L 505.025195 44.200128 
L 509.598965 44.200128 
L 509.598965 33.618713 
L 514.172736 33.618713 
L 514.172736 28.328006 
L 601.074375 28.328006 
" clip-path="url(#pfe395bc43b)" style="fill: none; stroke: #8c564b; stroke-opacity: 0.33; stroke-linecap: square"/>
   </g>
   <g id="line2d_19">
    <path d="M 43.074375 467.456719 
L 43.074375 462.166011 
L 43.074375 451.584597 
L 61.369457 451.584597 
L 61.369457 435.712474 
L 75.090768 435.712474 
L 75.090768 403.96823 
L 79.664539 403.96823 
L 79.664539 398.677523 
L 84.238309 398.677523 
L 84.238309 345.770449 
L 93.38585 345.770449 
L 93.38585 335.189034 
L 107.107162 335.189034 
L 107.107162 329.898327 
L 111.680932 329.898327 
L 111.680932 324.607619 
L 116.254703 324.607619 
L 116.254703 303.44479 
L 120.828473 303.44479 
L 120.828473 287.572668 
L 125.402244 287.572668 
L 125.402244 282.28196 
L 139.123555 282.28196 
L 139.123555 276.991253 
L 143.697326 276.991253 
L 143.697326 271.700546 
L 152.844867 271.700546 
L 152.844867 261.119131 
L 157.418637 261.119131 
L 157.418637 250.537716 
L 161.992408 250.537716 
L 161.992408 213.502764 
L 166.566178 213.502764 
L 166.566178 202.92135 
L 180.28749 202.92135 
L 180.28749 197.630642 
L 184.86126 197.630642 
L 184.86126 192.339935 
L 198.582572 192.339935 
L 198.582572 181.75852 
L 207.730113 181.75852 
L 207.730113 176.467813 
L 244.320277 176.467813 
L 244.320277 171.177105 
L 248.894047 171.177105 
L 248.894047 160.59569 
L 258.041588 160.59569 
L 258.041588 155.304983 
L 294.631752 155.304983 
L 294.631752 144.723568 
L 331.221916 144.723568 
L 331.221916 139.432861 
L 340.369457 139.432861 
L 340.369457 134.142154 
L 344.943227 134.142154 
L 344.943227 123.560739 
L 354.090768 123.560739 
L 354.090768 118.270031 
L 363.238309 118.270031 
L 363.238309 112.979324 
L 367.81208 112.979324 
L 367.81208 107.688617 
L 395.254703 107.688617 
L 395.254703 102.397909 
L 399.828473 102.397909 
L 399.828473 97.107202 
L 404.402244 97.107202 
L 404.402244 91.816494 
L 408.976014 91.816494 
L 408.976014 86.525787 
L 418.123555 86.525787 
L 418.123555 81.23508 
L 422.697326 81.23508 
L 422.697326 75.944372 
L 431.844867 75.944372 
L 431.844867 70.653665 
L 450.139949 70.653665 
L 450.139949 60.07225 
L 454.713719 60.07225 
L 454.713719 54.781543 
L 482.156342 54.781543 
L 482.156342 49.490835 
L 491.303883 49.490835 
L 491.303883 44.200128 
L 500.451424 44.200128 
L 500.451424 28.328006 
L 601.074375 28.328006 
" clip-path="url(#pfe395bc43b)" style="fill: none; stroke: #e377c2; stroke-opacity: 0.33; stroke-linecap: square"/>
   </g>
   <g id="line2d_20">
    <path d="M 43.074375 467.456719 
L 43.074375 462.166011 
L 43.074375 456.875304 
L 47.648145 456.875304 
L 47.648145 451.584597 
L 52.221916 451.584597 
L 52.221916 446.293889 
L 56.795686 446.293889 
L 56.795686 388.096108 
L 61.369457 388.096108 
L 61.369457 377.514693 
L 65.943227 377.514693 
L 65.943227 366.933278 
L 75.090768 366.933278 
L 75.090768 361.642571 
L 79.664539 361.642571 
L 79.664539 351.061156 
L 93.38585 351.061156 
L 93.38585 335.189034 
L 97.959621 335.189034 
L 97.959621 329.898327 
L 107.107162 329.898327 
L 107.107162 308.735497 
L 111.680932 308.735497 
L 111.680932 303.44479 
L 116.254703 303.44479 
L 116.254703 282.28196 
L 120.828473 282.28196 
L 120.828473 276.991253 
L 125.402244 276.991253 
L 125.402244 271.700546 
L 134.549785 271.700546 
L 134.549785 266.409838 
L 139.123555 266.409838 
L 139.123555 250.537716 
L 143.697326 250.537716 
L 143.697326 239.956301 
L 175.713719 239.956301 
L 175.713719 224.084179 
L 198.582572 224.084179 
L 198.582572 218.793472 
L 207.730113 218.793472 
L 207.730113 208.212057 
L 212.303883 208.212057 
L 212.303883 197.630642 
L 216.877654 197.630642 
L 216.877654 187.049227 
L 221.451424 187.049227 
L 221.451424 171.177105 
L 226.025195 171.177105 
L 226.025195 165.886398 
L 235.172736 165.886398 
L 235.172736 160.59569 
L 248.894047 160.59569 
L 248.894047 150.014276 
L 253.467818 150.014276 
L 253.467818 144.723568 
L 262.615359 144.723568 
L 262.615359 134.142154 
L 303.779293 134.142154 
L 303.779293 123.560739 
L 326.648145 123.560739 
L 326.648145 112.979324 
L 340.369457 112.979324 
L 340.369457 107.688617 
L 349.516998 107.688617 
L 349.516998 102.397909 
L 386.107162 102.397909 
L 386.107162 97.107202 
L 408.976014 97.107202 
L 408.976014 91.816494 
L 413.549785 91.816494 
L 413.549785 86.525787 
L 422.697326 86.525787 
L 422.697326 81.23508 
L 440.992408 81.23508 
L 440.992408 65.362958 
L 500.451424 65.362958 
L 500.451424 54.781543 
L 505.025195 54.781543 
L 505.025195 49.490835 
L 527.894047 49.490835 
L 527.894047 44.200128 
L 555.33667 44.200128 
L 555.33667 38.909421 
L 559.910441 38.909421 
L 559.910441 33.618713 
L 591.926834 33.618713 
L 591.926834 28.328006 
L 601.074375 28.328006 
" clip-path="url(#pfe395bc43b)" style="fill: none; stroke: #7f7f7f; stroke-opacity: 0.33; stroke-linecap: square"/>
   </g>
   <g id="line2d_21">
    <path d="M 43.074375 467.456719 
L 47.648145 467.456719 
L 47.648145 462.166011 
L 52.221916 462.166011 
L 52.221916 456.875304 
L 56.795686 456.875304 
L 56.795686 451.584597 
L 65.943227 451.584597 
L 65.943227 441.003182 
L 70.516998 441.003182 
L 70.516998 435.712474 
L 75.090768 435.712474 
L 75.090768 377.514693 
L 79.664539 377.514693 
L 79.664539 345.770449 
L 93.38585 345.770449 
L 93.38585 335.189034 
L 102.533391 335.189034 
L 102.533391 314.026205 
L 107.107162 314.026205 
L 107.107162 298.154082 
L 111.680932 298.154082 
L 111.680932 282.28196 
L 116.254703 282.28196 
L 116.254703 276.991253 
L 120.828473 276.991253 
L 120.828473 266.409838 
L 125.402244 266.409838 
L 125.402244 261.119131 
L 134.549785 261.119131 
L 134.549785 250.537716 
L 143.697326 250.537716 
L 143.697326 245.247009 
L 148.271096 245.247009 
L 148.271096 234.665594 
L 157.418637 234.665594 
L 157.418637 224.084179 
L 171.139949 224.084179 
L 171.139949 218.793472 
L 175.713719 218.793472 
L 175.713719 213.502764 
L 189.435031 213.502764 
L 189.435031 202.92135 
L 203.156342 202.92135 
L 203.156342 197.630642 
L 216.877654 197.630642 
L 216.877654 187.049227 
L 226.025195 187.049227 
L 226.025195 176.467813 
L 235.172736 176.467813 
L 235.172736 171.177105 
L 239.746506 171.177105 
L 239.746506 160.59569 
L 262.615359 160.59569 
L 262.615359 155.304983 
L 267.189129 155.304983 
L 267.189129 150.014276 
L 276.33667 150.014276 
L 276.33667 144.723568 
L 294.631752 144.723568 
L 294.631752 139.432861 
L 303.779293 139.432861 
L 303.779293 134.142154 
L 312.926834 134.142154 
L 312.926834 123.560739 
L 354.090768 123.560739 
L 354.090768 118.270031 
L 363.238309 118.270031 
L 363.238309 112.979324 
L 381.533391 112.979324 
L 381.533391 102.397909 
L 386.107162 102.397909 
L 386.107162 97.107202 
L 395.254703 97.107202 
L 395.254703 91.816494 
L 399.828473 91.816494 
L 399.828473 86.525787 
L 427.271096 86.525787 
L 427.271096 81.23508 
L 440.992408 81.23508 
L 440.992408 75.944372 
L 450.139949 75.944372 
L 450.139949 70.653665 
L 468.435031 70.653665 
L 468.435031 60.07225 
L 473.008801 60.07225 
L 473.008801 54.781543 
L 500.451424 54.781543 
L 500.451424 49.490835 
L 509.598965 49.490835 
L 509.598965 44.200128 
L 518.746506 44.200128 
L 518.746506 38.909421 
L 527.894047 38.909421 
L 527.894047 33.618713 
L 546.189129 33.618713 
L 546.189129 28.328006 
L 601.074375 28.328006 
" clip-path="url(#pfe395bc43b)" style="fill: none; stroke: #bcbd22; stroke-opacity: 0.33; stroke-linecap: square"/>
   </g>
   <g id="line2d_22">
    <path d="M 43.074375 467.456719 
L 601.074375 28.328006 
" clip-path="url(#pfe395bc43b)" style="fill: none; stroke-dasharray: 3.7,1.6; stroke-dashoffset: 0; stroke: #000000"/>
   </g>
   <g id="patch_3">
    <path d="M 43.074375 467.456719 
L 43.074375 23.936719 
" style="fill: none; stroke: #000000; stroke-width: 0.8; stroke-linejoin: miter; stroke-linecap: square"/>
   </g>
   <g id="patch_4">
    <path d="M 43.074375 467.456719 
L 601.074375 467.456719 
" style="fill: none; stroke: #000000; stroke-width: 0.8; stroke-linejoin: miter; stroke-linecap: square"/>
   </g>
   <g id="text_15">
    <!-- ROC Curve -->
    <g transform="translate(283.319297 17.936719) scale(0.15 -0.15)">
     <defs>
      <path id="ArialMT-4f" d="M 309 2231 
Q 309 3372 921 4017 
Q 1534 4663 2503 4663 
Q 3138 4663 3647 4359 
Q 4156 4056 4423 3514 
Q 4691 2972 4691 2284 
Q 4691 1588 4409 1038 
Q 4128 488 3612 205 
Q 3097 -78 2500 -78 
Q 1853 -78 1343 234 
Q 834 547 571 1087 
Q 309 1628 309 2231 
z
M 934 2222 
Q 934 1394 1379 917 
Q 1825 441 2497 441 
Q 3181 441 3623 922 
Q 4066 1403 4066 2288 
Q 4066 2847 3877 3264 
Q 3688 3681 3323 3911 
Q 2959 4141 2506 4141 
Q 1863 4141 1398 3698 
Q 934 3256 934 2222 
z
" transform="scale(0.015625)"/>
      <path id="ArialMT-43" d="M 3763 1606 
L 4369 1453 
Q 4178 706 3683 314 
Q 3188 -78 2472 -78 
Q 1731 -78 1267 223 
Q 803 525 561 1097 
Q 319 1669 319 2325 
Q 319 3041 592 3573 
Q 866 4106 1370 4382 
Q 1875 4659 2481 4659 
Q 3169 4659 3637 4309 
Q 4106 3959 4291 3325 
L 3694 3184 
Q 3534 3684 3231 3912 
Q 2928 4141 2469 4141 
Q 1941 4141 1586 3887 
Q 1231 3634 1087 3207 
Q 944 2781 944 2328 
Q 944 1744 1114 1308 
Q 1284 872 1643 656 
Q 2003 441 2422 441 
Q 2931 441 3284 734 
Q 3638 1028 3763 1606 
z
" transform="scale(0.015625)"/>
     </defs>
     <use xlink:href="#ArialMT-52"/>
     <use xlink:href="#ArialMT-4f" x="72.216797"/>
     <use xlink:href="#ArialMT-43" x="150"/>
     <use xlink:href="#ArialMT-20" x="222.216797"/>
     <use xlink:href="#ArialMT-43" x="250"/>
     <use xlink:href="#ArialMT-75" x="322.216797"/>
     <use xlink:href="#ArialMT-72" x="377.832031"/>
     <use xlink:href="#ArialMT-76" x="411.132812"/>
     <use xlink:href="#ArialMT-65" x="461.132812"/>
    </g>
   </g>
   <g id="legend_1">
    <g id="line2d_23">
     <path d="M 450.39 338.831719 
L 460.39 338.831719 
L 470.39 338.831719 
" style="fill: none; stroke: #ff0000; stroke-width: 2; stroke-linecap: square"/>
    </g>
    <g id="text_16">
     <!-- AUC=0.743 [0.660-0.800] -->
     <g transform="translate(478.39 342.331719) scale(0.1 -0.1)">
      <defs>
       <path id="ArialMT-41" d="M -9 0 
L 1750 4581 
L 2403 4581 
L 4278 0 
L 3588 0 
L 3053 1388 
L 1138 1388 
L 634 0 
L -9 0 
z
M 1313 1881 
L 2866 1881 
L 2388 3150 
Q 2169 3728 2063 4100 
Q 1975 3659 1816 3225 
L 1313 1881 
z
" transform="scale(0.015625)"/>
       <path id="ArialMT-55" d="M 3500 4581 
L 4106 4581 
L 4106 1934 
Q 4106 1244 3950 837 
Q 3794 431 3386 176 
Q 2978 -78 2316 -78 
Q 1672 -78 1262 144 
Q 853 366 678 786 
Q 503 1206 503 1934 
L 503 4581 
L 1109 4581 
L 1109 1938 
Q 1109 1341 1220 1058 
Q 1331 775 1601 622 
Q 1872 469 2263 469 
Q 2931 469 3215 772 
Q 3500 1075 3500 1938 
L 3500 4581 
z
" transform="scale(0.015625)"/>
       <path id="ArialMT-3d" d="M 3381 2694 
L 356 2694 
L 356 3219 
L 3381 3219 
L 3381 2694 
z
M 3381 1303 
L 356 1303 
L 356 1828 
L 3381 1828 
L 3381 1303 
z
" transform="scale(0.015625)"/>
       <path id="ArialMT-37" d="M 303 3981 
L 303 4522 
L 3269 4522 
L 3269 4084 
Q 2831 3619 2401 2847 
Q 1972 2075 1738 1259 
Q 1569 684 1522 0 
L 944 0 
Q 953 541 1156 1306 
Q 1359 2072 1739 2783 
Q 2119 3494 2547 3981 
L 303 3981 
z
" transform="scale(0.015625)"/>
       <path id="ArialMT-33" d="M 269 1209 
L 831 1284 
Q 928 806 1161 595 
Q 1394 384 1728 384 
Q 2125 384 2398 659 
Q 2672 934 2672 1341 
Q 2672 1728 2419 1979 
Q 2166 2231 1775 2231 
Q 1616 2231 1378 2169 
L 1441 2663 
Q 1497 2656 1531 2656 
Q 1891 2656 2178 2843 
Q 2466 3031 2466 3422 
Q 2466 3731 2256 3934 
Q 2047 4138 1716 4138 
Q 1388 4138 1169 3931 
Q 950 3725 888 3313 
L 325 3413 
Q 428 3978 793 4289 
Q 1159 4600 1703 4600 
Q 2078 4600 2393 4439 
Q 2709 4278 2876 4000 
Q 3044 3722 3044 3409 
Q 3044 3113 2884 2869 
Q 2725 2625 2413 2481 
Q 2819 2388 3044 2092 
Q 3269 1797 3269 1353 
Q 3269 753 2831 336 
Q 2394 -81 1725 -81 
Q 1122 -81 723 278 
Q 325 638 269 1209 
z
" transform="scale(0.015625)"/>
       <path id="ArialMT-5b" d="M 434 -1272 
L 434 4581 
L 1675 4581 
L 1675 4116 
L 997 4116 
L 997 -806 
L 1675 -806 
L 1675 -1272 
L 434 -1272 
z
" transform="scale(0.015625)"/>
       <path id="ArialMT-2d" d="M 203 1375 
L 203 1941 
L 1931 1941 
L 1931 1375 
L 203 1375 
z
" transform="scale(0.015625)"/>
       <path id="ArialMT-5d" d="M 1363 -1272 
L 122 -1272 
L 122 -806 
L 800 -806 
L 800 4116 
L 122 4116 
L 122 4581 
L 1363 4581 
L 1363 -1272 
z
" transform="scale(0.015625)"/>
      </defs>
      <use xlink:href="#ArialMT-41"/>
      <use xlink:href="#ArialMT-55" x="66.699219"/>
      <use xlink:href="#ArialMT-43" x="138.916016"/>
      <use xlink:href="#ArialMT-3d" x="211.132812"/>
      <use xlink:href="#ArialMT-30" x="269.53125"/>
      <use xlink:href="#ArialMT-2e" x="325.146484"/>
      <use xlink:href="#ArialMT-37" x="352.929688"/>
      <use xlink:href="#ArialMT-34" x="408.544922"/>
      <use xlink:href="#ArialMT-33" x="464.160156"/>
      <use xlink:href="#ArialMT-20" x="519.775391"/>
      <use xlink:href="#ArialMT-5b" x="547.558594"/>
      <use xlink:href="#ArialMT-30" x="575.341797"/>
      <use xlink:href="#ArialMT-2e" x="630.957031"/>
      <use xlink:href="#ArialMT-36" x="658.740234"/>
      <use xlink:href="#ArialMT-36" x="714.355469"/>
      <use xlink:href="#ArialMT-30" x="769.970703"/>
      <use xlink:href="#ArialMT-2d" x="825.585938"/>
      <use xlink:href="#ArialMT-30" x="858.886719"/>
      <use xlink:href="#ArialMT-2e" x="914.501953"/>
      <use xlink:href="#ArialMT-38" x="942.285156"/>
      <use xlink:href="#ArialMT-30" x="997.900391"/>
      <use xlink:href="#ArialMT-30" x="1053.515625"/>
      <use xlink:href="#ArialMT-5d" x="1109.130859"/>
     </g>
    </g>
    <g id="line2d_24">
     <path d="M 450.39 353.098906 
L 460.39 353.098906 
L 470.39 353.098906 
" style="fill: none; stroke: #ff7f0e; stroke-opacity: 0.33; stroke-linecap: square"/>
    </g>
    <g id="text_17">
     <!-- AUC=0.647 [0.576-0.710] -->
     <g transform="translate(478.39 356.598906) scale(0.1 -0.1)">
      <defs>
       <path id="ArialMT-35" d="M 266 1200 
L 856 1250 
Q 922 819 1161 601 
Q 1400 384 1738 384 
Q 2144 384 2425 690 
Q 2706 997 2706 1503 
Q 2706 1984 2436 2262 
Q 2166 2541 1728 2541 
Q 1456 2541 1237 2417 
Q 1019 2294 894 2097 
L 366 2166 
L 809 4519 
L 3088 4519 
L 3088 3981 
L 1259 3981 
L 1013 2750 
Q 1425 3038 1878 3038 
Q 2478 3038 2890 2622 
Q 3303 2206 3303 1553 
Q 3303 931 2941 478 
Q 2500 -78 1738 -78 
Q 1113 -78 717 272 
Q 322 622 266 1200 
z
" transform="scale(0.015625)"/>
      </defs>
      <use xlink:href="#ArialMT-41"/>
      <use xlink:href="#ArialMT-55" x="66.699219"/>
      <use xlink:href="#ArialMT-43" x="138.916016"/>
      <use xlink:href="#ArialMT-3d" x="211.132812"/>
      <use xlink:href="#ArialMT-30" x="269.53125"/>
      <use xlink:href="#ArialMT-2e" x="325.146484"/>
      <use xlink:href="#ArialMT-36" x="352.929688"/>
      <use xlink:href="#ArialMT-34" x="408.544922"/>
      <use xlink:href="#ArialMT-37" x="464.160156"/>
      <use xlink:href="#ArialMT-20" x="519.775391"/>
      <use xlink:href="#ArialMT-5b" x="547.558594"/>
      <use xlink:href="#ArialMT-30" x="575.341797"/>
      <use xlink:href="#ArialMT-2e" x="630.957031"/>
      <use xlink:href="#ArialMT-35" x="658.740234"/>
      <use xlink:href="#ArialMT-37" x="714.355469"/>
      <use xlink:href="#ArialMT-36" x="769.970703"/>
      <use xlink:href="#ArialMT-2d" x="825.585938"/>
      <use xlink:href="#ArialMT-30" x="858.886719"/>
      <use xlink:href="#ArialMT-2e" x="914.501953"/>
      <use xlink:href="#ArialMT-37" x="942.285156"/>
      <use xlink:href="#ArialMT-31" x="997.900391"/>
      <use xlink:href="#ArialMT-30" x="1053.515625"/>
      <use xlink:href="#ArialMT-5d" x="1109.130859"/>
     </g>
    </g>
    <g id="line2d_25">
     <path d="M 450.39 367.366094 
L 460.39 367.366094 
L 470.39 367.366094 
" style="fill: none; stroke: #2ca02c; stroke-opacity: 0.33; stroke-linecap: square"/>
    </g>
    <g id="text_18">
     <!-- AUC=0.720 [0.630-0.783] -->
     <g transform="translate(478.39 370.866094) scale(0.1 -0.1)">
      <use xlink:href="#ArialMT-41"/>
      <use xlink:href="#ArialMT-55" x="66.699219"/>
      <use xlink:href="#ArialMT-43" x="138.916016"/>
      <use xlink:href="#ArialMT-3d" x="211.132812"/>
      <use xlink:href="#ArialMT-30" x="269.53125"/>
      <use xlink:href="#ArialMT-2e" x="325.146484"/>
      <use xlink:href="#ArialMT-37" x="352.929688"/>
      <use xlink:href="#ArialMT-32" x="408.544922"/>
      <use xlink:href="#ArialMT-30" x="464.160156"/>
      <use xlink:href="#ArialMT-20" x="519.775391"/>
      <use xlink:href="#ArialMT-5b" x="547.558594"/>
      <use xlink:href="#ArialMT-30" x="575.341797"/>
      <use xlink:href="#ArialMT-2e" x="630.957031"/>
      <use xlink:href="#ArialMT-36" x="658.740234"/>
      <use xlink:href="#ArialMT-33" x="714.355469"/>
      <use xlink:href="#ArialMT-30" x="769.970703"/>
      <use xlink:href="#ArialMT-2d" x="825.585938"/>
      <use xlink:href="#ArialMT-30" x="858.886719"/>
      <use xlink:href="#ArialMT-2e" x="914.501953"/>
      <use xlink:href="#ArialMT-37" x="942.285156"/>
      <use xlink:href="#ArialMT-38" x="997.900391"/>
      <use xlink:href="#ArialMT-33" x="1053.515625"/>
      <use xlink:href="#ArialMT-5d" x="1109.130859"/>
     </g>
    </g>
    <g id="line2d_26">
     <path d="M 450.39 381.633281 
L 460.39 381.633281 
L 470.39 381.633281 
" style="fill: none; stroke: #4b0082; stroke-opacity: 0.33; stroke-linecap: square"/>
    </g>
    <g id="text_19">
     <!-- AUC=0.660 [0.580-0.729] -->
     <g transform="translate(478.39 385.133281) scale(0.1 -0.1)">
      <defs>
       <path id="ArialMT-39" d="M 350 1059 
L 891 1109 
Q 959 728 1153 556 
Q 1347 384 1650 384 
Q 1909 384 2104 503 
Q 2300 622 2425 820 
Q 2550 1019 2634 1356 
Q 2719 1694 2719 2044 
Q 2719 2081 2716 2156 
Q 2547 1888 2255 1720 
Q 1963 1553 1622 1553 
Q 1053 1553 659 1965 
Q 266 2378 266 3053 
Q 266 3750 677 4175 
Q 1088 4600 1706 4600 
Q 2153 4600 2523 4359 
Q 2894 4119 3086 3673 
Q 3278 3228 3278 2384 
Q 3278 1506 3087 986 
Q 2897 466 2520 194 
Q 2144 -78 1638 -78 
Q 1100 -78 759 220 
Q 419 519 350 1059 
z
M 2653 3081 
Q 2653 3566 2395 3850 
Q 2138 4134 1775 4134 
Q 1400 4134 1122 3828 
Q 844 3522 844 3034 
Q 844 2597 1108 2323 
Q 1372 2050 1759 2050 
Q 2150 2050 2401 2323 
Q 2653 2597 2653 3081 
z
" transform="scale(0.015625)"/>
      </defs>
      <use xlink:href="#ArialMT-41"/>
      <use xlink:href="#ArialMT-55" x="66.699219"/>
      <use xlink:href="#ArialMT-43" x="138.916016"/>
      <use xlink:href="#ArialMT-3d" x="211.132812"/>
      <use xlink:href="#ArialMT-30" x="269.53125"/>
      <use xlink:href="#ArialMT-2e" x="325.146484"/>
      <use xlink:href="#ArialMT-36" x="352.929688"/>
      <use xlink:href="#ArialMT-36" x="408.544922"/>
      <use xlink:href="#ArialMT-30" x="464.160156"/>
      <use xlink:href="#ArialMT-20" x="519.775391"/>
      <use xlink:href="#ArialMT-5b" x="547.558594"/>
      <use xlink:href="#ArialMT-30" x="575.341797"/>
      <use xlink:href="#ArialMT-2e" x="630.957031"/>
      <use xlink:href="#ArialMT-35" x="658.740234"/>
      <use xlink:href="#ArialMT-38" x="714.355469"/>
      <use xlink:href="#ArialMT-30" x="769.970703"/>
      <use xlink:href="#ArialMT-2d" x="825.585938"/>
      <use xlink:href="#ArialMT-30" x="858.886719"/>
      <use xlink:href="#ArialMT-2e" x="914.501953"/>
      <use xlink:href="#ArialMT-37" x="942.285156"/>
      <use xlink:href="#ArialMT-32" x="997.900391"/>
      <use xlink:href="#ArialMT-39" x="1053.515625"/>
      <use xlink:href="#ArialMT-5d" x="1109.130859"/>
     </g>
    </g>
    <g id="line2d_27">
     <path d="M 450.39 395.900469 
L 460.39 395.900469 
L 470.39 395.900469 
" style="fill: none; stroke: #9467bd; stroke-opacity: 0.33; stroke-linecap: square"/>
    </g>
    <g id="text_20">
     <!-- AUC=0.699 [0.631-0.766] -->
     <g transform="translate(478.39 399.400469) scale(0.1 -0.1)">
      <use xlink:href="#ArialMT-41"/>
      <use xlink:href="#ArialMT-55" x="66.699219"/>
      <use xlink:href="#ArialMT-43" x="138.916016"/>
      <use xlink:href="#ArialMT-3d" x="211.132812"/>
      <use xlink:href="#ArialMT-30" x="269.53125"/>
      <use xlink:href="#ArialMT-2e" x="325.146484"/>
      <use xlink:href="#ArialMT-36" x="352.929688"/>
      <use xlink:href="#ArialMT-39" x="408.544922"/>
      <use xlink:href="#ArialMT-39" x="464.160156"/>
      <use xlink:href="#ArialMT-20" x="519.775391"/>
      <use xlink:href="#ArialMT-5b" x="547.558594"/>
      <use xlink:href="#ArialMT-30" x="575.341797"/>
      <use xlink:href="#ArialMT-2e" x="630.957031"/>
      <use xlink:href="#ArialMT-36" x="658.740234"/>
      <use xlink:href="#ArialMT-33" x="714.355469"/>
      <use xlink:href="#ArialMT-31" x="769.970703"/>
      <use xlink:href="#ArialMT-2d" x="825.585938"/>
      <use xlink:href="#ArialMT-30" x="858.886719"/>
      <use xlink:href="#ArialMT-2e" x="914.501953"/>
      <use xlink:href="#ArialMT-37" x="942.285156"/>
      <use xlink:href="#ArialMT-36" x="997.900391"/>
      <use xlink:href="#ArialMT-36" x="1053.515625"/>
      <use xlink:href="#ArialMT-5d" x="1109.130859"/>
     </g>
    </g>
    <g id="line2d_28">
     <path d="M 450.39 410.167656 
L 460.39 410.167656 
L 470.39 410.167656 
" style="fill: none; stroke: #8c564b; stroke-opacity: 0.33; stroke-linecap: square"/>
    </g>
    <g id="text_21">
     <!-- AUC=0.654 [0.569-0.712] -->
     <g transform="translate(478.39 413.667656) scale(0.1 -0.1)">
      <use xlink:href="#ArialMT-41"/>
      <use xlink:href="#ArialMT-55" x="66.699219"/>
      <use xlink:href="#ArialMT-43" x="138.916016"/>
      <use xlink:href="#ArialMT-3d" x="211.132812"/>
      <use xlink:href="#ArialMT-30" x="269.53125"/>
      <use xlink:href="#ArialMT-2e" x="325.146484"/>
      <use xlink:href="#ArialMT-36" x="352.929688"/>
      <use xlink:href="#ArialMT-35" x="408.544922"/>
      <use xlink:href="#ArialMT-34" x="464.160156"/>
      <use xlink:href="#ArialMT-20" x="519.775391"/>
      <use xlink:href="#ArialMT-5b" x="547.558594"/>
      <use xlink:href="#ArialMT-30" x="575.341797"/>
      <use xlink:href="#ArialMT-2e" x="630.957031"/>
      <use xlink:href="#ArialMT-35" x="658.740234"/>
      <use xlink:href="#ArialMT-36" x="714.355469"/>
      <use xlink:href="#ArialMT-39" x="769.970703"/>
      <use xlink:href="#ArialMT-2d" x="825.585938"/>
      <use xlink:href="#ArialMT-30" x="858.886719"/>
      <use xlink:href="#ArialMT-2e" x="914.501953"/>
      <use xlink:href="#ArialMT-37" x="942.285156"/>
      <use xlink:href="#ArialMT-31" x="997.900391"/>
      <use xlink:href="#ArialMT-32" x="1053.515625"/>
      <use xlink:href="#ArialMT-5d" x="1109.130859"/>
     </g>
    </g>
    <g id="line2d_29">
     <path d="M 450.39 424.434844 
L 460.39 424.434844 
L 470.39 424.434844 
" style="fill: none; stroke: #e377c2; stroke-opacity: 0.33; stroke-linecap: square"/>
    </g>
    <g id="text_22">
     <!-- AUC=0.707 [0.626-0.769] -->
     <g transform="translate(478.39 427.934844) scale(0.1 -0.1)">
      <use xlink:href="#ArialMT-41"/>
      <use xlink:href="#ArialMT-55" x="66.699219"/>
      <use xlink:href="#ArialMT-43" x="138.916016"/>
      <use xlink:href="#ArialMT-3d" x="211.132812"/>
      <use xlink:href="#ArialMT-30" x="269.53125"/>
      <use xlink:href="#ArialMT-2e" x="325.146484"/>
      <use xlink:href="#ArialMT-37" x="352.929688"/>
      <use xlink:href="#ArialMT-30" x="408.544922"/>
      <use xlink:href="#ArialMT-37" x="464.160156"/>
      <use xlink:href="#ArialMT-20" x="519.775391"/>
      <use xlink:href="#ArialMT-5b" x="547.558594"/>
      <use xlink:href="#ArialMT-30" x="575.341797"/>
      <use xlink:href="#ArialMT-2e" x="630.957031"/>
      <use xlink:href="#ArialMT-36" x="658.740234"/>
      <use xlink:href="#ArialMT-32" x="714.355469"/>
      <use xlink:href="#ArialMT-36" x="769.970703"/>
      <use xlink:href="#ArialMT-2d" x="825.585938"/>
      <use xlink:href="#ArialMT-30" x="858.886719"/>
      <use xlink:href="#ArialMT-2e" x="914.501953"/>
      <use xlink:href="#ArialMT-37" x="942.285156"/>
      <use xlink:href="#ArialMT-36" x="997.900391"/>
      <use xlink:href="#ArialMT-39" x="1053.515625"/>
      <use xlink:href="#ArialMT-5d" x="1109.130859"/>
     </g>
    </g>
    <g id="line2d_30">
     <path d="M 450.39 438.702031 
L 460.39 438.702031 
L 470.39 438.702031 
" style="fill: none; stroke: #7f7f7f; stroke-opacity: 0.33; stroke-linecap: square"/>
    </g>
    <g id="text_23">
     <!-- AUC=0.714 [0.624-0.777] -->
     <g transform="translate(478.39 442.202031) scale(0.1 -0.1)">
      <use xlink:href="#ArialMT-41"/>
      <use xlink:href="#ArialMT-55" x="66.699219"/>
      <use xlink:href="#ArialMT-43" x="138.916016"/>
      <use xlink:href="#ArialMT-3d" x="211.132812"/>
      <use xlink:href="#ArialMT-30" x="269.53125"/>
      <use xlink:href="#ArialMT-2e" x="325.146484"/>
      <use xlink:href="#ArialMT-37" x="352.929688"/>
      <use xlink:href="#ArialMT-31" x="408.544922"/>
      <use xlink:href="#ArialMT-34" x="464.160156"/>
      <use xlink:href="#ArialMT-20" x="519.775391"/>
      <use xlink:href="#ArialMT-5b" x="547.558594"/>
      <use xlink:href="#ArialMT-30" x="575.341797"/>
      <use xlink:href="#ArialMT-2e" x="630.957031"/>
      <use xlink:href="#ArialMT-36" x="658.740234"/>
      <use xlink:href="#ArialMT-32" x="714.355469"/>
      <use xlink:href="#ArialMT-34" x="769.970703"/>
      <use xlink:href="#ArialMT-2d" x="825.585938"/>
      <use xlink:href="#ArialMT-30" x="858.886719"/>
      <use xlink:href="#ArialMT-2e" x="914.501953"/>
      <use xlink:href="#ArialMT-37" x="942.285156"/>
      <use xlink:href="#ArialMT-37" x="997.900391"/>
      <use xlink:href="#ArialMT-37" x="1053.515625"/>
      <use xlink:href="#ArialMT-5d" x="1109.130859"/>
     </g>
    </g>
    <g id="line2d_31">
     <path d="M 450.39 452.969219 
L 460.39 452.969219 
L 470.39 452.969219 
" style="fill: none; stroke: #bcbd22; stroke-opacity: 0.33; stroke-linecap: square"/>
    </g>
    <g id="text_24">
     <!-- AUC=0.711 [0.629-0.765] -->
     <g transform="translate(478.39 456.469219) scale(0.1 -0.1)">
      <use xlink:href="#ArialMT-41"/>
      <use xlink:href="#ArialMT-55" x="66.699219"/>
      <use xlink:href="#ArialMT-43" x="138.916016"/>
      <use xlink:href="#ArialMT-3d" x="211.132812"/>
      <use xlink:href="#ArialMT-30" x="269.53125"/>
      <use xlink:href="#ArialMT-2e" x="325.146484"/>
      <use xlink:href="#ArialMT-37" x="352.929688"/>
      <use xlink:href="#ArialMT-31" x="408.544922"/>
      <use xlink:href="#ArialMT-31" x="456.785156"/>
      <use xlink:href="#ArialMT-20" x="512.400391"/>
      <use xlink:href="#ArialMT-5b" x="540.183594"/>
      <use xlink:href="#ArialMT-30" x="567.966797"/>
      <use xlink:href="#ArialMT-2e" x="623.582031"/>
      <use xlink:href="#ArialMT-36" x="651.365234"/>
      <use xlink:href="#ArialMT-32" x="706.980469"/>
      <use xlink:href="#ArialMT-39" x="762.595703"/>
      <use xlink:href="#ArialMT-2d" x="818.210938"/>
      <use xlink:href="#ArialMT-30" x="851.511719"/>
      <use xlink:href="#ArialMT-2e" x="907.126953"/>
      <use xlink:href="#ArialMT-37" x="934.910156"/>
      <use xlink:href="#ArialMT-36" x="990.525391"/>
      <use xlink:href="#ArialMT-35" x="1046.140625"/>
      <use xlink:href="#ArialMT-5d" x="1101.755859"/>
     </g>
    </g>
   </g>
  </g>
 </g>
 <defs>
  <clipPath id="pfe395bc43b">
   <rect x="43.074375" y="23.936719" width="558" height="443.52"/>
  </clipPath>
 </defs>
</svg>
